<svg width="26" height="26" viewBox="0 0 26 26" fill="none" xmlns="http://www.w3.org/2000/svg">
<path d="M8.66668 8.66668H7.34213C5.93421 8.66668 5.23083 8.66668 4.73007 8.95391C4.29064 9.20597 3.95285 9.60414 3.77646 10.079C3.57558 10.6199 3.69121 11.3136 3.92238 12.7006L3.92286 12.7033L4.93397 18.7699C5.1055 19.7991 5.19182 20.3138 5.4486 20.7C5.67495 21.0404 5.99269 21.3095 6.36565 21.4768C6.78875 21.6666 7.3102 21.6667 8.35353 21.6667H17.6468C18.6901 21.6667 19.2112 21.6666 19.6343 21.4768C20.0073 21.3095 20.3253 21.0404 20.5516 20.7C20.8084 20.3138 20.8942 19.7991 21.0658 18.7699L22.0769 12.7033L22.0779 12.699C22.3089 11.3131 22.4244 10.6196 22.2236 10.079C22.0472 9.60414 21.7102 9.20597 21.2708 8.95391C20.7701 8.66668 20.0655 8.66668 18.6576 8.66668H17.3333M8.66668 8.66668H17.3333M8.66668 8.66668C8.66668 6.27344 10.6068 4.33334 13 4.33334C15.3932 4.33334 17.3333 6.27344 17.3333 8.66668" stroke="white" stroke-width="2" stroke-linecap="round" stroke-linejoin="round"/>
</svg>
